<?xml version="1.0" encoding="utf-8"?>

<!DOCTYPE svg PUBLIC "-//W3C//DTD SVG 1.1//EN" "http://www.w3.org/Graphics/SVG/1.1/DTD/svg11.dtd">
<!-- Uploaded to: SVG Repo, www.svgrepo.com, Generator: SVG Repo Mixer Tools -->
<svg version="1.1" id="_x32_" xmlns="http://www.w3.org/2000/svg" xmlns:xlink="http://www.w3.org/1999/xlink" 
	 viewBox="0 0 512 512"  xml:space="preserve">
<style type="text/css">
	.st0{fill:#000000;}
</style>
<g>
	<path class="st0" d="M373.366,195.429L255.996,76.475L138.635,195.429H0v240.096h512v-11.873V195.429H373.366z M23.746,219.175
		H148.56l107.436-108.89l107.445,108.89h124.813v192.604H281.427v-78.31c0-14.045-11.386-25.431-25.431-25.431
		c-14.045,0-25.431,11.386-25.431,25.431v78.31H23.746V219.175z"/>
	<rect x="62.164" y="314.005" class="st0" width="26.45" height="48.822"/>
	<rect x="144.672" y="314.005" class="st0" width="26.452" height="48.822"/>
	<rect x="340.87" y="314.005" class="st0" width="26.451" height="48.822"/>
	<rect x="423.386" y="314.005" class="st0" width="26.452" height="48.822"/>
	<path class="st0" d="M255.996,258.829c27.348-0.008,49.502-22.169,49.51-49.51c-0.008-27.356-22.161-49.51-49.51-49.51
		c-27.347,0-49.502,22.154-49.51,49.51C206.494,236.66,228.649,258.822,255.996,258.829z M232.18,185.496
		c6.122-6.099,14.486-9.848,23.816-9.856c9.33,0.008,17.694,3.757,23.816,9.856c6.107,6.122,9.856,14.494,9.864,23.823
		c-0.008,9.322-3.757,17.694-9.864,23.808c-6.122,6.114-14.493,9.863-23.816,9.871c-9.322-0.008-17.693-3.757-23.816-9.871
		c-6.106-6.114-9.863-14.486-9.863-23.808C222.325,199.99,226.074,191.619,232.18,185.496z"/>
	<polygon class="st0" points="275.406,205.362 259.954,205.362 259.954,186.046 252.038,186.046 252.038,213.278 275.406,213.278 	
		"/>
</g>
</svg>